<?xml version="1.0" encoding="UTF-8"?>
<svg version="1.1" xmlns="http://www.w3.org/2000/svg" width="389" height="277">
<path d="M0 0 C0.66 0 1.32 0 2 0 C1.67 4.29 1.34 8.58 1 13 C1.99 11.35 2.98 9.7 4 8 C6.1875 7.1875 6.1875 7.1875 8 7 C7.67 9.31 7.34 11.62 7 14 C8.27617187 13.98259766 8.27617187 13.98259766 9.578125 13.96484375 C25.64224804 13.8452173 41.31508425 14.59241697 57.15625 17.37890625 C61.00919578 18.10634421 61.00919578 18.10634421 65 18 C66.0260734 16.68662604 67.02727325 15.35335895 68 14 C68.99 14 69.98 14 71 14 C70.67 15.65 70.34 17.3 70 19 C71.485 18.01 71.485 18.01 73 17 C73.99 17 74.98 17 76 17 C75.67 18.32 75.34 19.64 75 21 C76.74468372 21.70088156 78.49601161 22.38524009 80.25 23.0625 C81.22453125 23.44535156 82.1990625 23.82820313 83.203125 24.22265625 C86.12910139 25.03588153 87.25752966 25.19733632 90 24 C91.95285665 22.58886013 91.95285665 22.58886013 93.8125 20.8125 C94.50601562 20.18730469 95.19953125 19.56210937 95.9140625 18.91796875 C97.24487319 17.69432072 98.57325826 16.46802577 99.8984375 15.23828125 C103.15978579 12.29737111 105.41610132 10.27781204 110 10 C113.74525799 13.74525799 113.68909949 17.98270909 114 23 C115.75027325 21.72954304 117.50020744 20.45861894 119.25 19.1875 C120.22453125 18.47980469 121.1990625 17.77210937 122.203125 17.04296875 C123.88253437 15.81624934 125.54531704 14.56551178 127.171875 13.26953125 C129.92494179 11.35767931 131.74001802 11.45666967 135 12 C138.11255575 14.70300894 138.93137556 16.25885604 139.3125 20.375 C139.00461592 23.94645538 138.57758469 27.46229378 138 31 C138.66 31 139.32 31 140 31 C140 32.32 140 33.64 140 35 C140.66 35 141.32 35 142 35 C141.67 36.32 141.34 37.64 141 39 C142.485 38.505 142.485 38.505 144 38 C148.24884138 37.5931128 151.81801931 37.30810886 155.5625 39.5 C156.036875 39.995 156.51125 40.49 157 41 C155.35211268 45.69014085 155.35211268 45.69014085 153.4375 47.375 C151.18589594 49.92029154 151.31030744 52.71074113 151 56 C151.91523438 56.34933594 152.83046875 56.69867188 153.7734375 57.05859375 C154.96195312 57.51363281 156.15046875 57.96867187 157.375 58.4375 C158.55835938 58.88996094 159.74171875 59.34242187 160.9609375 59.80859375 C164 61 164 61 166 62 C166.48730312 68.21311475 166.48730312 68.21311475 164.51953125 71.390625 C161.20511395 74.82323083 157.49626147 77.09299196 153.4375 79.5625 C151.91104652 80.49426464 150.38873729 81.43285993 148.87109375 82.37890625 C148.20005615 82.7869751 147.52901855 83.19504395 146.83764648 83.61547852 C143.55979268 86.08508247 142.16119358 88.237994 141.3125 92.25 C141.209375 93.1575 141.10625 94.065 141 95 C142.32 95.33 143.64 95.66 145 96 C143.33333333 97.66666667 141.66666667 99.33333333 140 101 C141.98 101.66 143.96 102.32 146 103 C143.08235 104.9451 141.37462715 105.45276317 138 106 C137.99613281 106.87785156 137.99613281 106.87785156 137.9921875 107.7734375 C137.54773187 117.64035256 134.42461303 128.15077394 130 137 C133.3 137 136.6 137 140 137 C140 137.99 140 138.98 140 140 C135.71 140.99 131.42 141.98 127 143 C127 143.66 127 144.32 127 145 C127.78375 144.938125 128.5675 144.87625 129.375 144.8125 C130.24125 144.874375 131.1075 144.93625 132 145 C132.66 145.99 133.32 146.98 134 148 C133.3709375 147.98195312 132.741875 147.96390625 132.09375 147.9453125 C128.96968662 148.16173858 126.83293132 148.62843671 124 150 C122.07600496 152.55542198 120.62200693 155.14920974 119.17285156 157.99438477 C112.42120344 171.23046976 102.30071051 182.4140728 92 193 C91.18402344 193.84433594 90.36804688 194.68867188 89.52734375 195.55859375 C82.52524741 202.68079466 75.05126789 209.03982112 67.19921875 215.203125 C65.34227505 216.72034365 63.65280963 218.26695689 62 220 C62.825 220.474375 63.65 220.94875 64.5 221.4375 C65.7375 222.2109375 65.7375 222.2109375 67 223 C67 223.33 67 223.66 67 224 C62.38 224 57.76 224 53 224 C54.32 225.32 55.64 226.64 57 228 C56.67 228.99 56.34 229.98 56 231 C55.43804932 230.73993164 54.87609863 230.47986328 54.29711914 230.21191406 C49.87681872 228.41240934 47.87398166 227.68351133 43.24609375 229.359375 C41.96211892 230.13276236 40.69318407 230.93147885 39.4375 231.75 C9.55387536 249.20673759 -26.69164956 256.88584304 -61 258 C-60.34 259.98 -59.68 261.96 -59 264 C-60.27445454 263.57316368 -61.54445882 263.13302798 -62.8125 262.6875 C-63.52019531 262.44386719 -64.22789062 262.20023437 -64.95703125 261.94921875 C-67.14472373 260.93275742 -68.40896718 259.79179406 -70 258 C-69.649375 258.7425 -69.29875 259.485 -68.9375 260.25 C-67.9279902 263.21122875 -68.12019116 264.12062561 -69 267 C-69.3853894 266.14680176 -69.3853894 266.14680176 -69.77856445 265.27636719 C-71.29069365 262.6264413 -72.61174528 260.92126608 -75 259 C-79.34557953 258.0500142 -83.59311792 258.08755779 -88.01422119 258.19857788 C-91.71956228 258.28625024 -95.42315205 258.23497123 -99.12890625 258.19140625 C-99.87714661 258.1850264 -100.62538696 258.17864655 -101.39630127 258.17207336 C-117.56562512 257.94945606 -134.6622325 255.25809623 -150 250 C-150.92425781 249.68933594 -151.84851563 249.37867188 -152.80078125 249.05859375 C-159.53392697 246.28972806 -162.83527737 241.83516231 -166.796875 235.83984375 C-169.3053508 232.60640066 -171.51597228 231.07548508 -175 229 C-175.103125 229.763125 -175.20625 230.52625 -175.3125 231.3125 C-176.04364039 234.17059424 -176.76951913 235.15742885 -179 237 C-179.33 234.69 -179.66 232.38 -180 230 C-180.99 231.65 -181.98 233.3 -183 235 C-183.66 234.67 -184.32 234.34 -185 234 C-184.54177532 230.53058454 -184.10868317 227.32604951 -183 224 C-183.99 223.67 -184.98 223.34 -186 223 C-187.09765625 220.2265625 -187.09765625 220.2265625 -188.0625 216.625 C-188.40796875 215.3565625 -188.7534375 214.088125 -189.109375 212.78125 C-189.87116293 209.54699246 -190.38744463 206.41455892 -190.8125 203.125 C-191.63552091 197.99055762 -193.77855183 195.34644817 -197.40234375 191.72265625 C-199 190 -199 190 -200.0625 187.0625 C-200.371875 186.381875 -200.68125 185.70125 -201 185 C-203.98650805 184.3355782 -203.98650805 184.3355782 -207 184 C-207.66 183.01 -208.32 182.02 -209 181 C-207.515 180.01 -207.515 180.01 -206 179 C-206.7425 178.071875 -206.7425 178.071875 -207.5 177.125 C-209 175 -209 175 -209 173 C-206.36 173.66 -203.72 174.32 -201 175 C-198.73842108 168.32754021 -197.26977579 161.64174342 -196.09057617 154.7109375 C-195.55285278 151.62560186 -194.91145558 148.73722301 -193.91015625 145.765625 C-192.79159799 142.85200078 -192.79159799 142.85200078 -193 139 C-194.64488294 137.31183067 -196.31337542 135.64646685 -198 134 C-199.3125 131.1875 -199.3125 131.1875 -200 129 C-196.51460083 129.64544429 -193.97180943 131.10134397 -191 133 C-191.3609375 132.44570312 -191.721875 131.89140625 -192.09375 131.3203125 C-192.5578125 130.59585938 -193.021875 129.87140625 -193.5 129.125 C-193.9640625 128.40570313 -194.428125 127.68640625 -194.90625 126.9453125 C-196 125 -196 125 -196 123 C-192.88801935 124.49836105 -189.9465385 126.19933758 -187 128 C-186.75378906 127.15824219 -186.50757813 126.31648438 -186.25390625 125.44921875 C-184.86656048 121.63293741 -183.03564414 118.26810897 -180.9375 114.8125 C-180.53829346 114.1539502 -180.13908691 113.49540039 -179.7277832 112.81689453 C-175.98078042 106.76489278 -171.73188259 101.31960049 -167 96 C-166.52626953 95.46600586 -166.05253906 94.93201172 -165.56445312 94.38183594 C-159.71634899 87.8224759 -153.78629927 81.60416972 -147 76 C-146.34902344 75.4225 -145.69804687 74.845 -145.02734375 74.25 C-144.39957031 73.693125 -143.77179688 73.13625 -143.125 72.5625 C-142.57070312 72.06878906 -142.01640625 71.57507813 -141.4453125 71.06640625 C-140 70 -140 70 -138 70 C-138.33 66.37 -138.66 62.74 -139 59 C-138.01 58.67 -137.02 58.34 -136 58 C-135.01 59.98 -134.02 61.96 -133 64 C-132.93941406 63.37351563 -132.87882812 62.74703125 -132.81640625 62.1015625 C-132.69072266 60.87566406 -132.69072266 60.87566406 -132.5625 59.625 C-132.44068359 58.40683594 -132.44068359 58.40683594 -132.31640625 57.1640625 C-132 55 -132 55 -131 53 C-130.34 53 -129.68 53 -129 53 C-127.64560332 55.70879335 -127.93498549 58.00933268 -128 61 C-126.81083984 60.14341797 -126.81083984 60.14341797 -125.59765625 59.26953125 C-92.43554751 35.9935956 -45.17808198 14.97410517 -4 14 C-4.061875 12.96875 -4.12375 11.9375 -4.1875 10.875 C-3.98368639 6.66285213 -3.07937852 3.07937852 0 0 Z " fill="#C17943" transform="translate(213,3)"/>
<path d="M0 0 C0.66 0 1.32 0 2 0 C1.67 4.29 1.34 8.58 1 13 C1.99 11.35 2.98 9.7 4 8 C6.1875 7.1875 6.1875 7.1875 8 7 C7.67 9.31 7.34 11.62 7 14 C8.27617187 13.98259766 8.27617187 13.98259766 9.578125 13.96484375 C25.64224804 13.8452173 41.31508425 14.59241697 57.15625 17.37890625 C61.00919578 18.10634421 61.00919578 18.10634421 65 18 C66.0260734 16.68662604 67.02727325 15.35335895 68 14 C68.99 14 69.98 14 71 14 C70.67 15.65 70.34 17.3 70 19 C71.485 18.01 71.485 18.01 73 17 C73.99 17 74.98 17 76 17 C75.67 18.32 75.34 19.64 75 21 C76.74468372 21.70088156 78.49601161 22.38524009 80.25 23.0625 C81.22453125 23.44535156 82.1990625 23.82820313 83.203125 24.22265625 C86.12910139 25.03588153 87.25752966 25.19733632 90 24 C91.95285665 22.58886013 91.95285665 22.58886013 93.8125 20.8125 C94.50601562 20.18730469 95.19953125 19.56210937 95.9140625 18.91796875 C97.24487319 17.69432072 98.57325826 16.46802577 99.8984375 15.23828125 C103.15978579 12.29737111 105.41610132 10.27781204 110 10 C113.74525799 13.74525799 113.68909949 17.98270909 114 23 C115.75027325 21.72954304 117.50020744 20.45861894 119.25 19.1875 C120.22453125 18.47980469 121.1990625 17.77210937 122.203125 17.04296875 C123.88253437 15.81624934 125.54531704 14.56551178 127.171875 13.26953125 C129.92494179 11.35767931 131.74001802 11.45666967 135 12 C138.11255575 14.70300894 138.93137556 16.25885604 139.3125 20.375 C139.00461592 23.94645538 138.57758469 27.46229378 138 31 C138.66 31 139.32 31 140 31 C140 32.32 140 33.64 140 35 C140.66 35 141.32 35 142 35 C141.67 36.32 141.34 37.64 141 39 C142.485 38.505 142.485 38.505 144 38 C148.24884138 37.5931128 151.81801931 37.30810886 155.5625 39.5 C156.036875 39.995 156.51125 40.49 157 41 C155.35211268 45.69014085 155.35211268 45.69014085 153.4375 47.375 C151.18589594 49.92029154 151.31030744 52.71074113 151 56 C151.91523438 56.34933594 152.83046875 56.69867188 153.7734375 57.05859375 C154.96195312 57.51363281 156.15046875 57.96867187 157.375 58.4375 C158.55835938 58.88996094 159.74171875 59.34242187 160.9609375 59.80859375 C164 61 164 61 166 62 C166.48730312 68.21311475 166.48730312 68.21311475 164.51953125 71.390625 C161.20511395 74.82323083 157.49626147 77.09299196 153.4375 79.5625 C151.91104652 80.49426464 150.38873729 81.43285993 148.87109375 82.37890625 C148.20005615 82.7869751 147.52901855 83.19504395 146.83764648 83.61547852 C143.55979268 86.08508247 142.16119358 88.237994 141.3125 92.25 C141.209375 93.1575 141.10625 94.065 141 95 C142.32 95.33 143.64 95.66 145 96 C143.33333333 97.66666667 141.66666667 99.33333333 140 101 C141.98 101.66 143.96 102.32 146 103 C143.08235 104.9451 141.37462715 105.45276317 138 106 C137.99613281 106.87785156 137.99613281 106.87785156 137.9921875 107.7734375 C137.54773187 117.64035256 134.42461303 128.15077394 130 137 C133.3 137 136.6 137 140 137 C140 137.99 140 138.98 140 140 C135.71 140.99 131.42 141.98 127 143 C127 143.66 127 144.32 127 145 C127.78375 144.938125 128.5675 144.87625 129.375 144.8125 C130.24125 144.874375 131.1075 144.93625 132 145 C132.66 145.99 133.32 146.98 134 148 C133.3709375 147.98195312 132.741875 147.96390625 132.09375 147.9453125 C128.96968662 148.16173858 126.83293132 148.62843671 124 150 C122.07600496 152.55542198 120.62200693 155.14920974 119.17285156 157.99438477 C112.42120344 171.23046976 102.30071051 182.4140728 92 193 C91.18402344 193.84433594 90.36804688 194.68867188 89.52734375 195.55859375 C82.52524741 202.68079466 75.05126789 209.03982112 67.19921875 215.203125 C65.34227505 216.72034365 63.65280963 218.26695689 62 220 C62.825 220.474375 63.65 220.94875 64.5 221.4375 C65.7375 222.2109375 65.7375 222.2109375 67 223 C67 223.33 67 223.66 67 224 C62.38 224 57.76 224 53 224 C54.32 225.32 55.64 226.64 57 228 C56.67 228.99 56.34 229.98 56 231 C55.43804932 230.73993164 54.87609863 230.47986328 54.29711914 230.21191406 C49.87681872 228.41240934 47.87398166 227.68351133 43.24609375 229.359375 C41.96211892 230.13276236 40.69318407 230.93147885 39.4375 231.75 C9.55387536 249.20673759 -26.69164956 256.88584304 -61 258 C-60.34 259.98 -59.68 261.96 -59 264 C-60.27445454 263.57316368 -61.54445882 263.13302798 -62.8125 262.6875 C-63.52019531 262.44386719 -64.22789062 262.20023437 -64.95703125 261.94921875 C-67.14472373 260.93275742 -68.40896718 259.79179406 -70 258 C-69.649375 258.7425 -69.29875 259.485 -68.9375 260.25 C-67.9279902 263.21122875 -68.12019116 264.12062561 -69 267 C-69.3853894 266.14680176 -69.3853894 266.14680176 -69.77856445 265.27636719 C-71.29069365 262.6264413 -72.61174528 260.92126608 -75 259 C-79.34557953 258.0500142 -83.59311792 258.08755779 -88.01422119 258.19857788 C-91.71956228 258.28625024 -95.42315205 258.23497123 -99.12890625 258.19140625 C-99.87714661 258.1850264 -100.62538696 258.17864655 -101.39630127 258.17207336 C-117.56562512 257.94945606 -134.6622325 255.25809623 -150 250 C-150.92425781 249.68933594 -151.84851563 249.37867188 -152.80078125 249.05859375 C-159.53392697 246.28972806 -162.83527737 241.83516231 -166.796875 235.83984375 C-169.3053508 232.60640066 -171.51597228 231.07548508 -175 229 C-175.103125 229.763125 -175.20625 230.52625 -175.3125 231.3125 C-176.04364039 234.17059424 -176.76951913 235.15742885 -179 237 C-179.33 234.69 -179.66 232.38 -180 230 C-180.99 231.65 -181.98 233.3 -183 235 C-183.66 234.67 -184.32 234.34 -185 234 C-184.54177532 230.53058454 -184.10868317 227.32604951 -183 224 C-183.99 223.67 -184.98 223.34 -186 223 C-187.09765625 220.2265625 -187.09765625 220.2265625 -188.0625 216.625 C-188.40796875 215.3565625 -188.7534375 214.088125 -189.109375 212.78125 C-189.87116293 209.54699246 -190.38744463 206.41455892 -190.8125 203.125 C-191.63552091 197.99055762 -193.77855183 195.34644817 -197.40234375 191.72265625 C-199 190 -199 190 -200.0625 187.0625 C-200.371875 186.381875 -200.68125 185.70125 -201 185 C-203.98650805 184.3355782 -203.98650805 184.3355782 -207 184 C-207.66 183.01 -208.32 182.02 -209 181 C-207.515 180.01 -207.515 180.01 -206 179 C-206.7425 178.071875 -206.7425 178.071875 -207.5 177.125 C-209 175 -209 175 -209 173 C-206.36 173.66 -203.72 174.32 -201 175 C-198.73842108 168.32754021 -197.26977579 161.64174342 -196.09057617 154.7109375 C-195.55285278 151.62560186 -194.91145558 148.73722301 -193.91015625 145.765625 C-192.79159799 142.85200078 -192.79159799 142.85200078 -193 139 C-194.64488294 137.31183067 -196.31337542 135.64646685 -198 134 C-199.3125 131.1875 -199.3125 131.1875 -200 129 C-196.51460083 129.64544429 -193.97180943 131.10134397 -191 133 C-191.3609375 132.44570312 -191.721875 131.89140625 -192.09375 131.3203125 C-192.5578125 130.59585938 -193.021875 129.87140625 -193.5 129.125 C-193.9640625 128.40570313 -194.428125 127.68640625 -194.90625 126.9453125 C-196 125 -196 125 -196 123 C-192.88801935 124.49836105 -189.9465385 126.19933758 -187 128 C-186.75378906 127.15824219 -186.50757813 126.31648438 -186.25390625 125.44921875 C-184.86656048 121.63293741 -183.03564414 118.26810897 -180.9375 114.8125 C-180.53829346 114.1539502 -180.13908691 113.49540039 -179.7277832 112.81689453 C-175.98078042 106.76489278 -171.73188259 101.31960049 -167 96 C-166.52626953 95.46600586 -166.05253906 94.93201172 -165.56445312 94.38183594 C-159.71634899 87.8224759 -153.78629927 81.60416972 -147 76 C-146.34902344 75.4225 -145.69804687 74.845 -145.02734375 74.25 C-144.39957031 73.693125 -143.77179688 73.13625 -143.125 72.5625 C-142.57070312 72.06878906 -142.01640625 71.57507813 -141.4453125 71.06640625 C-140 70 -140 70 -138 70 C-138.33 66.37 -138.66 62.74 -139 59 C-138.01 58.67 -137.02 58.34 -136 58 C-135.01 59.98 -134.02 61.96 -133 64 C-132.93941406 63.37351563 -132.87882812 62.74703125 -132.81640625 62.1015625 C-132.69072266 60.87566406 -132.69072266 60.87566406 -132.5625 59.625 C-132.44068359 58.40683594 -132.44068359 58.40683594 -132.31640625 57.1640625 C-132 55 -132 55 -131 53 C-130.34 53 -129.68 53 -129 53 C-127.64560332 55.70879335 -127.93498549 58.00933268 -128 61 C-126.81083984 60.14341797 -126.81083984 60.14341797 -125.59765625 59.26953125 C-92.43554751 35.9935956 -45.17808198 14.97410517 -4 14 C-4.061875 12.96875 -4.12375 11.9375 -4.1875 10.875 C-3.98368639 6.66285213 -3.07937852 3.07937852 0 0 Z M-38 28 C-39.53841553 28.38551025 -39.53841553 28.38551025 -41.10791016 28.77880859 C-75.13804941 37.51287143 -104.59429357 53.92716098 -132.05664062 75.4765625 C-133.85895672 76.88943341 -135.67092611 78.28897495 -137.484375 79.6875 C-138.47953125 80.47125 -139.4746875 81.255 -140.5 82.0625 C-141.3559375 82.73410156 -142.211875 83.40570313 -143.09375 84.09765625 C-145.10873871 86.10851588 -145.65254919 87.21418901 -146 90 C-145.01 90.66 -144.02 91.32 -143 92 C-143.42152344 92.61488281 -143.84304687 93.22976562 -144.27734375 93.86328125 C-144.82519531 94.67152344 -145.37304688 95.47976562 -145.9375 96.3125 C-146.48277344 97.11300781 -147.02804688 97.91351563 -147.58984375 98.73828125 C-149.13837326 101.0258143 -149.13837326 101.0258143 -150 104 C-152.97 103.505 -152.97 103.505 -156 103 C-156 101.02 -156 99.04 -156 97 C-160.00302841 98.3343428 -161.57317283 100.98805878 -164 104.25 C-164.43828125 104.82363281 -164.8765625 105.39726563 -165.328125 105.98828125 C-170.18528049 111.901648 -170.18528049 111.901648 -172 119 C-172.66 119 -173.32 119 -174 119 C-175.29761299 121.37191584 -176.58816317 123.74724614 -177.875 126.125 C-178.23980469 126.79015625 -178.60460937 127.4553125 -178.98046875 128.140625 C-182.47377399 134.61911835 -184.29766935 140.91078076 -185.5625 148.125 C-186.93238022 155.78227916 -186.93238022 155.78227916 -187.7109375 158.2890625 C-188.25314156 160.37339994 -188.25314156 160.37339994 -186.0625 163.25 C-185.381875 164.1575 -184.70125 165.065 -184 166 C-183.01 165.67 -182.02 165.34 -181 165 C-180.83564453 163.51886719 -180.83564453 163.51886719 -180.66796875 162.0078125 C-180.50941406 160.72648438 -180.35085937 159.44515625 -180.1875 158.125 C-180.03667969 156.84882813 -179.88585937 155.57265625 -179.73046875 154.2578125 C-179 151 -179 151 -176 149 C-175.34 149.99 -174.68 150.98 -174 152 C-173.67 151.01 -173.34 150.02 -173 149 C-172.505 151.475 -172.505 151.475 -172 154 C-171.34 154 -170.68 154 -170 154 C-170.515625 155.03125 -171.03125 156.0625 -171.5625 157.125 C-173.11406614 160.78226305 -173.28594402 163.14216793 -172 167 C-170.12491838 169.2085766 -170.12491838 169.2085766 -168 171 C-167.34 171.99 -166.68 172.98 -166 174 C-163.93093223 174.40223991 -163.93093223 174.40223991 -161.625 174.25 C-160.85414063 174.23453125 -160.08328125 174.2190625 -159.2890625 174.203125 C-157.0945194 174.00838739 -155.11635304 173.59915017 -153 173 C-153.32097656 173.56460938 -153.64195312 174.12921875 -153.97265625 174.7109375 C-156.1593865 179.58327183 -155.73236339 184.77147794 -154.08984375 189.76953125 C-152.29713444 193.70657452 -151.02155457 196.2636033 -147.453125 198.8359375 C-142.68114456 200.44459154 -138.80211578 199.84409718 -133.875 199.1875 C-132.00440095 198.97094362 -130.13329975 198.7586803 -128.26171875 198.55078125 C-127.36114746 198.44975098 -126.46057617 198.3487207 -125.53271484 198.24462891 C-120.68657172 197.77655146 -115.86352991 197.81875044 -111 198 C-111.99 198.66 -112.98 199.32 -114 200 C-112.68 200 -111.36 200 -110 200 C-110 200.66 -110 201.32 -110 202 C-111.98 202 -113.96 202 -116 202 C-116.33 202.99 -116.66 203.98 -117 205 C-114.69 205 -112.38 205 -110 205 C-110 205.66 -110 206.32 -110 207 C-116.93 207 -123.86 207 -131 207 C-131.33 205.68 -131.66 204.36 -132 203 C-134.64 203.33 -137.28 203.66 -140 204 C-140 204.66 -140 205.32 -140 206 C-139.34 206 -138.68 206 -138 206 C-138 206.66 -138 207.32 -138 208 C-138.9075 207.9175 -139.815 207.835 -140.75 207.75 C-144.02376505 207.74382729 -144.02376505 207.74382729 -146.4375 209.5625 C-148.33222894 212.00916527 -148.33222894 212.00916527 -147.875 215.5 C-147.17286646 218.84634093 -147.17286646 218.84634093 -145.9375 221.125 C-144.74590957 223.50818085 -144.85401505 225.37227096 -145 228 C-147.97 228.99 -150.94 229.98 -154 231 C-154 232.32 -154 233.64 -154 235 C-142.53988504 241.5449415 -130.19013066 243.35265094 -117.25 245.0625 C-115.97809814 245.23168945 -114.70619629 245.40087891 -113.39575195 245.57519531 C-103.35106863 246.86382169 -93.29528107 247.65746017 -83.1875 248.25 C-82.48862671 248.29101837 -81.78975342 248.33203674 -81.06970215 248.3742981 C-68.53715497 249.36387486 -68.53715497 249.36387486 -56.0625 248.5 C-53.44266122 248.07227122 -51.31643002 247.99611288 -48.6875 248.0625 C-2.11825337 248.20007532 46.54057137 223.36331282 79.46972656 191.47900391 C80.53307926 190.45127725 81.60326912 189.43059677 82.67871094 188.41552734 C102.45583525 169.73590658 118.22872896 146.63114421 125 120 C125 119.01 125 118.02 125 117 C122.36 117.33 119.72 117.66 117 118 C117.92335871 115.18211241 118.8627054 112.371467 119.8125 109.5625 C120.07353516 108.76005859 120.33457031 107.95761719 120.60351562 107.13085938 C120.86455078 106.36708984 121.12558594 105.60332031 121.39453125 104.81640625 C121.63018799 104.10943604 121.86584473 103.40246582 122.10864258 102.67407227 C123 101 123 101 126 100 C129.95124903 96.04875097 130.46414311 91.89041923 131.2421875 86.53515625 C133.58832968 78.6864641 141.17375049 75.68820908 147.796875 71.9296875 C148.5909375 71.465625 149.385 71.0015625 150.203125 70.5234375 C151.29608887 69.903479 151.29608887 69.903479 152.41113281 69.27099609 C152.93545898 68.85156738 153.45978516 68.43213867 154 68 C154 67.01 154 66.02 154 65 C152.0429132 64.32968281 150.08428887 63.66385317 148.125 63 C147.03445313 62.62875 145.94390625 62.2575 144.8203125 61.875 C142.17379146 60.901228 142.17379146 60.901228 140 61 C139.83346964 56.67021068 139.84448822 53.77214561 142 50 C142 49.01 142 48.02 142 47 C140.94039063 47.02320312 139.88078125 47.04640625 138.7890625 47.0703125 C137.4010487 47.08906944 136.0130273 47.10726972 134.625 47.125 C133.57699219 47.15013672 133.57699219 47.15013672 132.5078125 47.17578125 C130.67102514 47.19344267 128.83398037 47.10303261 127 47 C124.58798021 44.58798021 124.24074022 43.37036311 124 40 C124.94622159 38.62797869 125.95884159 37.30144802 127 36 C129.01806071 31.71048979 130.45054047 27.80576501 130 23 C124.95519838 24.71297368 121.01380642 27.72360582 116.81640625 30.8984375 C114.26420641 32.74803173 112.36628003 33.9475273 109.21875 34.3984375 C107 34 107 34 105 32 C104.875 28.375 104.875 28.375 105 25 C102.01492044 24.67291018 102.01492044 24.67291018 100.3515625 26.42578125 C99.49691406 27.35970703 99.49691406 27.35970703 98.625 28.3125 C94.92118832 32.14028864 92.29839065 34.84139435 86.7734375 35.22265625 C82.71013824 34.98289636 79.89016411 34.00941991 76.125 32.5 C68.78580182 29.75823234 62.14592204 29.59286285 54.38671875 29.921875 C51 30 51 30 49 29 C48.67 28.01 48.34 27.02 48 26 C18.83290899 22.10553046 -9.21177606 20.68544572 -38 28 Z " fill="#2D2829" transform="translate(213,3)"/>
<path d="M0 0 C0.99 0 1.98 0 3 0 C4.36639342 1.6396721 5.6949419 3.31110128 7 5 C7.825 5.639375 8.65 6.27875 9.5 6.9375 C16.72127981 12.89505584 22.24612887 24.79913636 24 34 C24.22874012 38.67922722 24.17974918 43.31986384 24 48 C20.89951072 49.55024464 18.42105782 49.28992015 15 49 C12.4375 47.1875 12.4375 47.1875 10 45 C9.01 44.566875 8.02 44.13375 7 43.6875 C3.08300283 41.48418909 1.30446898 38.77411146 -1 35 C-1.433125 34.319375 -1.86625 33.63875 -2.3125 32.9375 C-3.26397919 30.25605864 -3.1281021 27.8182461 -3 25 C-2.34 25.33 -1.68 25.66 -1 26 C-1 26.99 -1 27.98 -1 29 C-0.34 28.67 0.32 28.34 1 28 C0.7834375 27.44054687 0.566875 26.88109375 0.34375 26.3046875 C-2.25756 18.81387815 -4.17147099 9.14164396 -0.98046875 1.5859375 C-0.65691406 1.06257812 -0.33335938 0.53921875 0 0 Z " fill="#862F2B" transform="translate(32,177)"/>
<path d="M0 0 C0.66 0.33 1.32 0.66 2 1 C0.04709472 2.83943372 -1.91181918 4.67159131 -3.875 6.5 C-4.43058594 7.02464844 -4.98617188 7.54929687 -5.55859375 8.08984375 C-9.7734375 12 -9.7734375 12 -12 12 C-12 12.66 -12 13.32 -12 14 C-11.18208984 13.34644531 -11.18208984 13.34644531 -10.34765625 12.6796875 C-5.06365652 8.50668259 0.34332829 4.65075976 6 1 C6.66 1.33 7.32 1.66 8 2 C5.70036286 5.19394047 3.17844973 8.15490178 0.59765625 11.12109375 C-1.31734238 13.37320705 -3.15326428 15.69158035 -5 18 C-1.7 15.36 1.6 12.72 5 10 C5.66 10.33 6.32 10.66 7 11 C1.57534247 17.78082192 1.57534247 17.78082192 -2 20 C-2.66 20 -3.32 20 -4 20 C-2.49829538 25.98551772 -1.05773837 31.61255621 2 37 C3.98 36.505 3.98 36.505 6 36 C5.01 36.33 4.02 36.66 3 37 C3 33 3 33 5.046875 30.9296875 C5.93890625 30.25164062 6.8309375 29.57359375 7.75 28.875 C8.63171875 28.19179687 9.5134375 27.50859375 10.421875 26.8046875 C12.57539839 25.29722113 14.61323838 24.08184989 17 23 C16.67 24.32 16.34 25.64 16 27 C19.76687864 27 20.91190305 26.76462683 24 25 C22.33481689 29.08366335 19.45307123 32.06037785 16.5 35.25 C16.00113281 35.80429688 15.50226563 36.35859375 14.98828125 36.9296875 C13.7031646 38.3285008 12.35566232 39.66944254 11 41 C10.34 41 9.68 41 9 41 C9.495 43.475 9.495 43.475 10 46 C8.05844468 45.60265845 6.12177962 45.18136959 4.1875 44.75 C2.56908203 44.40195313 2.56908203 44.40195313 0.91796875 44.046875 C-2.47393102 42.82996852 -3.31244847 42.1407209 -5 39 C-6.11297184 35.87739877 -7.08896785 32.75595859 -8.01757812 29.57617188 C-9.83116167 23.72457708 -11.8854223 20.27918898 -17.1640625 17.0859375 C-18.30617188 16.52132812 -19.44828125 15.95671875 -20.625 15.375 C-26.79171333 12.31243001 -26.79171333 12.31243001 -29 9 C-29.07905064 6.66800612 -29.08798769 4.33167378 -29 2 C-28.01 1.67 -27.02 1.34 -26 1 C-25.75765625 1.56589844 -25.5153125 2.13179687 -25.265625 2.71484375 C-24.76289063 3.81505859 -24.76289063 3.81505859 -24.25 4.9375 C-23.92515625 5.66839844 -23.6003125 6.39929687 -23.265625 7.15234375 C-22.13400791 9.11611831 -22.13400791 9.11611831 -20.140625 9.96484375 C-17.01452698 10.01618478 -15.82769151 8.6418012 -13.5 6.625 C-10.68240822 4.20302898 -8.71253486 2.59063055 -5 2 C-5 2.66 -5 3.32 -5 4 C-3.35 2.68 -1.7 1.36 0 0 Z " fill="#272324" transform="translate(328,42)"/>
<path d="M0 0 C0.33 0 0.66 0 1 0 C1.4640625 1.4540625 1.4640625 1.4540625 1.9375 2.9375 C2.69523342 5.84065792 2.69523342 5.84065792 4 7 C6.53049402 7.07313567 9.03304837 7.09247527 11.5625 7.0625 C12.62887695 7.05573242 12.62887695 7.05573242 13.71679688 7.04882812 C15.47790013 7.03700864 17.23896036 7.01907263 19 7 C18.125 12.875 18.125 12.875 17 14 C17.08937803 15.52519276 17.24537146 17.04681929 17.4375 18.5625 C17.59025391 19.80193359 17.59025391 19.80193359 17.74609375 21.06640625 C17.82988281 21.70449219 17.91367187 22.34257813 18 23 C15.69 24.32 13.38 25.64 11 27 C11 26.34 11 25.68 11 25 C9.35 25.66 7.7 26.32 6 27 C6.33 26.01 6.66 25.02 7 24 C5.15830774 25.25868903 3.32682969 26.53233526 1.5 27.8125 C0.4790625 28.52019531 -0.541875 29.22789063 -1.59375 29.95703125 C-2.3878125 30.63121094 -3.181875 31.30539063 -4 32 C-4 32.99 -4 33.98 -4 35 C-2.68 34.34 -1.36 33.68 0 33 C-0.99 34.32 -1.98 35.64 -3 37 C-5.4330166 36.63275221 -6.65900647 36.4243475 -8.23046875 34.46875 C-13.13545817 24.37848606 -13.13545817 24.37848606 -12 19 C-10.11749289 17.00471596 -8.23608437 15.69118616 -5.8828125 14.2890625 C-3.68537546 13.0630422 -3.68537546 13.0630422 -3 10 C-6.3 12.64 -9.6 15.28 -13 18 C-13.66 17.67 -14.32 17.34 -15 17 C-14.22914063 16.25234375 -13.45828125 15.5046875 -12.6640625 14.734375 C-11.65077644 13.73985349 -10.63777025 12.74504677 -9.625 11.75 C-9.11710937 11.25886719 -8.60921875 10.76773438 -8.0859375 10.26171875 C-5.4560681 7.6664529 -3.48233935 5.38392619 -2 2 C-1.34 1.34 -0.68 0.68 0 0 Z " fill="#CCC674" transform="translate(336,43)"/>
<path d="M0 0 C2.625 -0.4375 2.625 -0.4375 6 0 C13.90927668 5.90153721 18.10807064 17.54035322 19.96875 26.84375 C20.00595261 29.41073005 19.30691959 30.82180068 18 33 C13.22571325 32.5787394 10.09361234 30.54137202 7 27 C1.69075817 18.9048648 -0.521672 9.65093194 0 0 Z " fill="#231F20" transform="translate(33,187)"/>
<path d="M0 0 C-2.79157673 1.86105115 -4.17547436 2.41640294 -7.34375 3.0703125 C-8.59478516 3.33134766 -8.59478516 3.33134766 -9.87109375 3.59765625 C-11.17240234 3.85869141 -11.17240234 3.85869141 -12.5 4.125 C-13.80130859 4.39763672 -13.80130859 4.39763672 -15.12890625 4.67578125 C-21.57078242 6 -21.57078242 6 -25 6 C-25 6.66 -25 7.32 -25 8 C-24.40832031 7.855625 -23.81664062 7.71125 -23.20703125 7.5625 C-19.07470059 6.59177306 -15.2770238 5.72406298 -11 6 C-11 6.66 -11 7.32 -11 8 C-9.33710938 7.54947266 -9.33710938 7.54947266 -7.640625 7.08984375 C-6.17721457 6.70522947 -4.7136655 6.32114243 -3.25 5.9375 C-2.52039063 5.73833984 -1.79078125 5.53917969 -1.0390625 5.33398438 C2.71031044 4.36255593 5.30274238 3.84550613 9 5 C6.00235701 5.82136504 3.00151902 6.63042488 0 7.4375 C-0.83917969 7.66759766 -1.67835938 7.89769531 -2.54296875 8.13476562 C-7.70053321 9.51411426 -12.68685418 10.46499573 -18 11 C-17.67 11.99 -17.34 12.98 -17 14 C-17.33 14.66 -17.66 15.32 -18 16 C-17.01 16.33 -16.02 16.66 -15 17 C-20.8804291 19.2948016 -25.53699817 20.07476444 -31.4375 17.5 C-32.283125 17.005 -33.12875 16.51 -34 16 C-34.125 10.25 -34.125 10.25 -33 8 C-34.32 7.67 -35.64 7.34 -37 7 C-37 6.01 -37 5.02 -37 4 C-36.14003418 3.93268677 -36.14003418 3.93268677 -35.26269531 3.86401367 C-20.5849273 2.74944867 -20.5849273 2.74944867 -6.27734375 -0.51171875 C-3.79816066 -1.04327602 -2.37370089 -0.81681624 0 0 Z " fill="#242020" transform="translate(176,215)"/>
<path d="M0 0 C0.33 0.66 0.66 1.32 1 2 C0.0625 4.625 0.0625 4.625 -1 7 C-0.01 6.67 0.98 6.34 2 6 C0.125 10.75 0.125 10.75 -1 13 C1.97 9.04 4.94 5.08 8 1 C8.33 1.66 8.66 2.32 9 3 C5.04158883 11.77423992 -1.15264205 20.2484093 -8 27 C-8.99 27 -9.98 27 -11 27 C-11.33 26.34 -11.66 25.68 -12 25 C-12.99 25.66 -13.98 26.32 -15 27 C-15.99 27 -16.98 27 -18 27 C-18 26.34 -18 25.68 -18 25 C-18.66 24.67 -19.32 24.34 -20 24 C-18.49508808 20.54894544 -16.48416021 18.13275903 -13.9375 15.375 C-13.1434375 14.50875 -12.349375 13.6425 -11.53125 12.75 C-10.6959375 11.8425 -9.860625 10.935 -9 10 C-7.31025167 8.12702594 -5.62264166 6.25211982 -3.9375 4.375 C-2.625 2.91666667 -1.3125 1.45833333 0 0 Z " fill="#262223" transform="translate(313,145)"/>
<path d="M0 0 C6.03748977 0.80499864 12.01270113 1.88482498 18 3 C18 3.66 18 4.32 18 5 C18.99 5.33 19.98 5.66 21 6 C20.67 8.31 20.34 10.62 20 13 C11.78293252 15.73902249 4.06199346 12.71031303 -3.5625 9.5 C-6 8 -6 8 -7 5 C-6.34 4.67 -5.68 4.34 -5 4 C-5 3.34 -5 2.68 -5 2 C-3.35 2 -1.7 2 0 2 C0 1.34 0 0.68 0 0 Z " fill="#332624" transform="translate(78,230)"/>
<path d="M0 0 C2 2 2 2 2.5625 4.625 C1.73729035 9.57625792 -1.20162721 12.79537714 -5 16 C-5.99 16 -6.98 16 -8 16 C-8 16.66 -8 17.32 -8 18 C-8.99 18 -9.98 18 -11 18 C-10.34 16.68 -9.68 15.36 -9 14 C-8.34 14 -7.68 14 -7 14 C-7 13.34 -7 12.68 -7 12 C-7.86625 12.33 -8.7325 12.66 -9.625 13 C-12.95718275 13.98731341 -15.55159538 14.16420974 -19 14 C-19.375 11.8125 -19.375 11.8125 -19 9 C-16.0625 6.3125 -16.0625 6.3125 -13 4 C-12.67 3.34 -12.34 2.68 -12 2 C-7.68641671 -0.23974517 -4.70672651 -1.7482127 0 0 Z " fill="#252021" transform="translate(80,161)"/>
<path d="M0 0 C0.66 0.33 1.32 0.66 2 1 C1.3503125 1.47050781 0.700625 1.94101563 0.03125 2.42578125 C-0.8040625 3.04839844 -1.639375 3.67101562 -2.5 4.3125 C-3.75296875 5.23482422 -3.75296875 5.23482422 -5.03125 6.17578125 C-5.6809375 6.77777344 -6.330625 7.37976563 -7 8 C-7 8.99 -7 9.98 -7 11 C-7.66 11.66 -8.32 12.32 -9 13 C-5.535 12.505 -5.535 12.505 -2 12 C-4.12780579 14.34058637 -6.11562221 15.70700306 -9 17 C-7.02 16.67 -5.04 16.34 -3 16 C-5.12669835 18.33936818 -7.06224856 19.80653848 -10 21 C-10.99 21 -11.98 21 -13 21 C-13 20.34 -13 19.68 -13 19 C-13.99 19.33 -14.98 19.66 -16 20 C-18.6928496 20.17812624 -21.29441368 20.08727698 -24 20 C-25 19 -25 19 -25.375 16.125 C-25.25125 15.09375 -25.1275 14.0625 -25 13 C-21.77448016 10.67555955 -18.51323646 9.39239588 -14.75 8.1875 C-9.20091046 6.25247149 -4.70395222 3.48440905 0 0 Z " fill="#282324" transform="translate(172,137)"/>
<path d="M0 0 C0 0.66 0 1.32 0 2 C-0.99 2.33 -1.98 2.66 -3 3 C-3.33 3.66 -3.66 4.32 -4 5 C-2.35 5 -0.7 5 1 5 C-1 7 -1 7 -4 8 C1.94 7.505 1.94 7.505 8 7 C1.33930189 11.44046541 -7.13157553 12.45394757 -15 12 C-15 11.01 -15 10.02 -15 9 C-16.98 9 -18.96 9 -21 9 C-21.36125654 4.54450262 -21.36125654 4.54450262 -19.921875 2.375 C-17.0641994 0.33048413 -14.53587733 0.47651047 -11.0625 0.3125 C-9.83660156 0.24675781 -8.61070313 0.18101562 -7.34765625 0.11328125 C-4.89954767 0.03043977 -2.44950982 0 0 0 Z " fill="#272222" transform="translate(132,200)"/>
<path d="M0 0 C0.99 0.33 1.98 0.66 3 1 C1.35 2.65 -0.3 4.3 -2 6 C0.97 5.01 3.94 4.02 7 3 C5.68 4.32 4.36 5.64 3 7 C5.64 6.01 8.28 5.02 11 4 C11 4.66 11 5.32 11 6 C-5.55844156 15.69220779 -5.55844156 15.69220779 -14 15 C-14.99 14.67 -15.98 14.34 -17 14 C-17.48125545 8.5858762 -17.48125545 8.5858762 -15.5625 6.25 C-12.46799692 4.7404863 -9.48410419 4.18875441 -6.1171875 3.54296875 C-3.57660332 2.89141672 -2.01963522 1.63124383 0 0 Z " fill="#252122" transform="translate(225,186)"/>
<path d="M0 0 C0.66 0.33 1.32 0.66 2 1 C-0.31 2.98 -2.62 4.96 -5 7 C-4.67 7.99 -4.34 8.98 -4 10 C-4.33 10.66 -4.66 11.32 -5 12 C-4.34 12.33 -3.68 12.66 -3 13 C-6.51772334 16.60792138 -8.60969166 18.36276208 -13.75 18.4375 C-17.67600701 18.32399299 -17.67600701 18.32399299 -20 16 C-19.86358395 12.79422279 -19.66688089 10.750241 -17.5 8.3125 C-14.51201299 6.74380682 -11.47783731 5.82751391 -8.26171875 4.828125 C-5.09179862 3.6674634 -2.70036309 2.0079623 0 0 Z " fill="#262223" transform="translate(211,77)"/>
<path d="M0 0 C0.33 0.99 0.66 1.98 1 3 C1.66 3.33 2.32 3.66 3 4 C2.71313099 8.73333862 0.48347427 11.04880858 -2.625 14.3515625 C-4.22445871 16.0653207 -4.22445871 16.0653207 -5 19 C-7.31 19 -9.62 19 -12 19 C-13 17 -13 17 -12.46875 14.609375 C-10.53673192 8.90680551 -7.31202178 0 0 0 Z " fill="#262222" transform="translate(56,122)"/>
<path d="M0 0 C1.33332095 2.6666419 0.67102033 4.16680303 0 7 C1.65 7 3.3 7 5 7 C4.35201601 11.52621655 3.83374079 15.02333222 0.8125 18.5625 C-2.6809314 20.34803161 -5.12700472 20.37240339 -9 20 C-10 19 -10 19 -10.5 15.9375 C-9.88098644 11.06276819 -8.16029664 9.32852337 -4.82421875 5.89453125 C-3.03064845 4.03182977 -1.51020607 2.09570135 0 0 Z " fill="#252121" transform="translate(298,135)"/>
<path d="M0 0 C0 0.66 0 1.32 0 2 C-0.66 2 -1.32 2 -2 2 C-1.67 3.32 -1.34 4.64 -1 6 C-1.99 6.33 -2.98 6.66 -4 7 C-4 7.66 -4 8.32 -4 9 C-3.34 9 -2.68 9 -2 9 C-2 9.66 -2 10.32 -2 11 C-2.66 11 -3.32 11 -4 11 C-4 11.66 -4 12.32 -4 13 C-10.5 16 -10.5 16 -15 16 C-15 15.34 -15 14.68 -15 14 C-15.99 14 -16.98 14 -18 14 C-18 13.01 -18 12.02 -18 11 C-18.66 11 -19.32 11 -20 11 C-19.9296875 9.1640625 -19.9296875 9.1640625 -19 7 C-16.66585459 5.91948767 -14.56391205 5.11494937 -12.125 4.375 C-8.41486792 3.17892046 -3.64902636 0 0 0 Z " fill="#86533D" transform="translate(115,164)"/>
<path d="M0 0 C0.66 0.33 1.32 0.66 2 1 C1.01 1.99 0.02 2.98 -1 4 C0.32 4.33 1.64 4.66 3 5 C2.01 5.66 1.02 6.32 0 7 C-0.33 7.99 -0.66 8.98 -1 10 C-0.34 10.33 0.32 10.66 1 11 C-3.94201908 12.97680763 -7.75149341 13.43020546 -13 13 C-15.0625 11.8125 -15.0625 11.8125 -16 10 C-15.92074721 6.82988842 -15.41911696 5.44905389 -13.25 3.125 C-11 2 -11 2 -8.625 2.5 C-4.99048445 3.19228868 -3.18424984 1.69826658 0 0 Z " fill="#262223" transform="translate(222,37)"/>
<path d="M0 0 C0 3.19398323 -0.51014449 4.26859824 -2 7 C-2.23332031 7.6084375 -2.46664063 8.216875 -2.70703125 8.84375 C-4.5352767 11.89266689 -6.95036585 13.47677709 -9.8125 15.5625 C-10.85019531 16.32691406 -11.88789063 17.09132812 -12.95703125 17.87890625 C-18.28497292 21.59273466 -18.28497292 21.59273466 -21 23 C-21.66 22.67 -22.32 22.34 -23 22 C-23.66 22 -24.32 22 -25 22 C-25.66 22 -26.32 22 -27 22 C-27 21.01 -27 20.02 -27 19 C-24.8671875 17.5625 -24.8671875 17.5625 -21.875 16 C-14.09645367 11.67961551 -6.31673413 6.31673413 0 0 Z " fill="#936A47" transform="translate(280,186)"/>
<path d="M0 0 C-0.66 1.65 -1.32 3.3 -2 5 C1.13349732 6.04449911 1.98968256 5.93423645 5 5 C1.17225273 9.18659858 -2.94607874 12.37820862 -8 15 C-8.66 15 -9.32 15 -10 15 C-10 14.34 -10 13.68 -10 13 C-11.65 13 -13.3 13 -15 13 C-15.23046875 10.69921875 -15.23046875 10.69921875 -15 8 C-11.38725386 4.02866864 -5.51334447 0 0 0 Z " fill="#262222" transform="translate(139,74)"/>
<path d="M0 0 C-1.98 0.33 -3.96 0.66 -6 1 C-6 1.99 -6 2.98 -6 4 C-5.01 4.33 -4.02 4.66 -3 5 C-3.33 5.66 -3.66 6.32 -4 7 C-3.34 7.33 -2.68 7.66 -2 8 C-7.27913453 10.08386889 -12.39538469 10.57910004 -18 11 C-18 9.35 -18 7.7 -18 6 C-18.99 5.67 -19.98 5.34 -21 5 C-21 4.01 -21 3.02 -21 2 C-18.25162151 1.46892686 -15.50187625 0.94984119 -12.75 0.4375 C-11.97269531 0.28603516 -11.19539062 0.13457031 -10.39453125 -0.02148438 C-9.64042969 -0.16005859 -8.88632813 -0.29863281 -8.109375 -0.44140625 C-7.07248535 -0.63778687 -7.07248535 -0.63778687 -6.01464844 -0.83813477 C-3.78712058 -1.01710362 -2.12493038 -0.65206197 0 0 Z " fill="#262121" transform="translate(201,230)"/>
<path d="M0 0 C1.32 0 2.64 0 4 0 C4.33 0.66 4.66 1.32 5 2 C5.99 1.67 6.98 1.34 8 1 C7.54636829 2.58468677 7.08688548 4.16769924 6.625 5.75 C6.36976563 6.63171875 6.11453125 7.5134375 5.8515625 8.421875 C4.47198061 12.59859081 3.73994901 14.50670066 0 17 C-2.6875 16.625 -2.6875 16.625 -5 16 C-6.22205711 12.68298784 -6.27021247 10.62831411 -4.87109375 7.375 C-1.94412336 2.21062117 -1.94412336 2.21062117 0 0 Z " fill="#252122" transform="translate(319,94)"/>
<path d="M0 0 C0.33 0.99 0.66 1.98 1 3 C0.01 4.485 0.01 4.485 -1 6 C-1.2784375 6.6496875 -1.556875 7.299375 -1.84375 7.96875 C-3.73848375 11.29733632 -6.83631762 13.02594116 -9.90625 15.21875 C-12.04267061 17.03630186 -12.96120516 18.42559541 -14 21 C-14.99 21 -15.98 21 -17 21 C-17 20.01 -17 19.02 -17 18 C-17.66 18 -18.32 18 -19 18 C-18.24837969 11.97337167 -12.43132434 8.5730334 -8 5 C-5.38548447 3.18448042 -2.76390063 1.5866837 0 0 Z " fill="#9C6A47" transform="translate(103,66)"/>
<path d="M0 0 C0 0.66 0 1.32 0 2 C-0.804375 2.45375 -1.60875 2.9075 -2.4375 3.375 C-5.15236193 4.73420995 -5.15236193 4.73420995 -5.8125 7.1875 C-5.874375 7.785625 -5.93625 8.38375 -6 9 C-4.68 8.67 -3.36 8.34 -2 8 C-3.56204726 12.21752761 -6.45134252 14.37399346 -10 17 C-12.375 17.8125 -12.375 17.8125 -14 18 C-14 17.34 -14 16.68 -14 16 C-15.32 15.67 -16.64 15.34 -18 15 C-17.73634332 11.4866214 -17.27927913 10.25619821 -14.63671875 7.83203125 C-13.66347656 7.16558594 -12.69023438 6.49914062 -11.6875 5.8125 C-10.72199219 5.13832031 -9.75648437 4.46414062 -8.76171875 3.76953125 C-2.8785872 0 -2.8785872 0 0 0 Z " fill="#292424" transform="translate(113,116)"/>
<path d="M0 0 C1.22589844 0.15275391 1.22589844 0.15275391 2.4765625 0.30859375 C3.41628906 0.43427734 3.41628906 0.43427734 4.375 0.5625 C3.78106618 1.85890378 3.17442011 3.14948839 2.5625 4.4375 C2.22605469 5.15679687 1.88960938 5.87609375 1.54296875 6.6171875 C0.375 8.5625 0.375 8.5625 -2.625 10.5625 C-6.04517557 10.96208487 -9.49793041 11.1260348 -12.625 9.5625 C-12.32679167 5.98400008 -11.88254642 4.80023516 -9.1875 2.3125 C-5.59196411 -0.14298792 -4.26253044 -0.54803963 0 0 Z " fill="#242121" transform="translate(270.625,68.4375)"/>
<path d="M0 0 C0.33 0.66 0.66 1.32 1 2 C0.67 2.99 0.34 3.98 0 5 C1.65 4.67 3.3 4.34 5 4 C4.67 4.99 4.34 5.98 4 7 C3.34 7 2.68 7 2 7 C2 8.65 2 10.3 2 12 C-1.39464446 14.08901197 -4.04841529 14.34361606 -8 14 C-10 12 -10 12 -10.3125 9.5625 C-10 7 -10 7 -8.9375 5.4375 C-6.10383978 3.33510693 -3.09555439 1.69379391 0 0 Z " fill="#252121" transform="translate(248,102)"/>
<path d="M0 0 C0.90105469 0.01804688 1.80210937 0.03609375 2.73046875 0.0546875 C3.41753906 0.07789063 4.10460937 0.10109375 4.8125 0.125 C5.4725 1.775 6.1325 3.425 6.8125 5.125 C6.1525 5.125 5.4925 5.125 4.8125 5.125 C4.1525 6.775 3.4925 8.425 2.8125 10.125 C-3.44632353 10.48608597 -3.44632353 10.48608597 -6.625 8.9375 C-8.1875 7.125 -8.1875 7.125 -8.625 4.5625 C-8.480625 3.758125 -8.33625 2.95375 -8.1875 2.125 C-4.87379 -0.08414 -3.8428979 -0.09981553 0 0 Z " fill="#262222" transform="translate(278.1875,41.875)"/>
<path d="M0 0 C0 0.99 0 1.98 0 3 C0.99 3.33 1.98 3.66 3 4 C-5.42857143 6.28571429 -5.42857143 6.28571429 -10 6 C-10 5.34 -10 4.68 -10 4 C-14.62 4.66 -19.24 5.32 -24 6 C-24 5.34 -24 4.68 -24 4 C-20.37757339 3.13465736 -16.75172417 2.28463446 -13.125 1.4375 C-12.09246094 1.19064453 -11.05992187 0.94378906 -9.99609375 0.68945312 C-9.00996094 0.46064453 -8.02382812 0.23183594 -7.0078125 -0.00390625 C-5.64100342 -0.32597046 -5.64100342 -0.32597046 -4.24658203 -0.65454102 C-2 -1 -2 -1 0 0 Z " fill="#8B563C" transform="translate(175,217)"/>
<path d="M0 0 C0.66 0.33 1.32 0.66 2 1 C1.67 1.99 1.34 2.98 1 4 C2.65 3.67 4.3 3.34 6 3 C5.59007813 3.54269531 5.18015625 4.08539063 4.7578125 4.64453125 C4.21898438 5.35996094 3.68015625 6.07539063 3.125 6.8125 C2.59132813 7.52019531 2.05765625 8.22789062 1.5078125 8.95703125 C0.29185219 10.60456297 -0.86416141 12.29624211 -2 14 C-3.32 14 -4.64 14 -6 14 C-6 13.34 -6 12.68 -6 12 C-6.66 12 -7.32 12 -8 12 C-6.49087042 7.01987239 -3.44338151 3.75740058 0 0 Z " fill="#89553E" transform="translate(76,126)"/>
<path d="M0 0 C1.98 0 3.96 0 6 0 C5.67 4.62 5.34 9.24 5 14 C-1.09467456 9.12426036 -1.09467456 9.12426036 -2 5 C-1.125 2.1875 -1.125 2.1875 0 0 Z " fill="#80312D" transform="translate(21,178)"/>
<path d="M0 0 C0 0.99 0 1.98 0 3 C-5.3840706 8.37436957 -19.25046329 22 -27 22 C-27 21.01 -27 20.02 -27 19 C-24.8671875 17.5625 -24.8671875 17.5625 -21.875 16 C-14.09645367 11.67961551 -6.31673413 6.31673413 0 0 Z " fill="#2C2827" transform="translate(280,186)"/>
<path d="M0 0 C0 4.15232956 -1.79659651 6.52309572 -4.375 9.6875 C-7.38023423 12.11480457 -10.16773966 13 -14 13 C-12.47605205 8.79467528 -9.3847135 6.74995834 -5.875 4.25 C-5.03001953 3.63318359 -5.03001953 3.63318359 -4.16796875 3.00390625 C-2.78398366 1.99523915 -1.39269459 0.99660714 0 0 Z " fill="#3C3934" transform="translate(344,65)"/>
<path d="M0 0 C0.66 0.33 1.32 0.66 2 1 C-5.59 8.59 -13.18 16.18 -21 24 C-21.66 23.67 -22.32 23.34 -23 23 C-8.29668153 6.92986799 -8.29668153 6.92986799 -1 1 C-0.67 0.67 -0.34 0.34 0 0 Z " fill="#595657" transform="translate(67,78)"/>
<path d="M0 0 C0.66 0.33 1.32 0.66 2 1 C0.68 2.65 -0.64 4.3 -2 6 C-0.35 4.68 1.3 3.36 3 2 C3 5 3 5 1.25 6.82421875 C0.5075 7.43910156 -0.235 8.05398437 -1 8.6875 C-2.11375 9.62142578 -2.11375 9.62142578 -3.25 10.57421875 C-3.8275 11.04472656 -4.405 11.51523438 -5 12 C-5.66 11.34 -6.32 10.68 -7 10 C-7.99 10.33 -8.98 10.66 -10 11 C-8.55218207 7.55571735 -6.72305391 5.63869038 -3.875 3.25 C-3.15054687 2.63640625 -2.42609375 2.0228125 -1.6796875 1.390625 C-0.84824219 0.70226562 -0.84824219 0.70226562 0 0 Z " fill="#2C2828" transform="translate(271,141)"/>
<path d="M0 0 C0.33 0.66 0.66 1.32 1 2 C0.20335938 2.56847656 -0.59328125 3.13695313 -1.4140625 3.72265625 C-7.34986463 8.04813737 -12.36280077 12.26451674 -17 18 C-17.66 18 -18.32 18 -19 18 C-18.24837969 11.97337167 -12.43132434 8.5730334 -8 5 C-5.38548447 3.18448042 -2.76390063 1.5866837 0 0 Z " fill="#2C2828" transform="translate(103,66)"/>
<path d="M0 0 C0.66 0.33 1.32 0.66 2 1 C0.48922551 5.39131785 -2.91662276 7.31736792 -6.625 9.75 C-7.54152344 10.36681641 -7.54152344 10.36681641 -8.4765625 10.99609375 C-9.97895328 12.00551256 -11.48876909 13.0038647 -13 14 C-13 11 -13 11 -11 8.6875 C-7.59364394 5.46765912 -3.7945342 2.73997383 0 0 Z " fill="#9C6A46" transform="translate(103,62)"/>
<path d="M0 0 C0.66 0.33 1.32 0.66 2 1 C0.3989569 2.6280776 -1.20594736 4.25235885 -2.8125 5.875 C-3.70582031 6.77992188 -4.59914063 7.68484375 -5.51953125 8.6171875 C-10.08196721 13 -10.08196721 13 -14 13 C-12.47605205 8.79467528 -9.3847135 6.74995834 -5.875 4.25 C-5.03001953 3.63318359 -5.03001953 3.63318359 -4.16796875 3.00390625 C-2.78398366 1.99523915 -1.39269459 0.99660714 0 0 Z " fill="#2E2929" transform="translate(272,136)"/>
<path d="M0 0 C0.33 0.66 0.66 1.32 1 2 C0.01 2.99 -0.98 3.98 -2 5 C-1.01 5.33 -0.02 5.66 1 6 C-2.625 9 -2.625 9 -6 9 C-6 8.34 -6 7.68 -6 7 C-6.99 7 -7.98 7 -9 7 C-9 6.34 -9 5.68 -9 5 C-6.03 3.35 -3.06 1.7 0 0 Z " fill="#584537" transform="translate(203,120)"/>
<path d="M0 0 C0.66 0.33 1.32 0.66 2 1 C-3.01303525 5.68337987 -7.75145802 10.06701091 -14 13 C-14.66 12.67 -15.32 12.34 -16 12 C-10.75139424 7.87014467 -5.46618113 3.83795696 0 0 Z " fill="#2B2626" transform="translate(273,196)"/>
<path d="M0 0 C-0.33 0.66 -0.66 1.32 -1 2 C0.32 2.66 1.64 3.32 3 4 C-0.625 7 -0.625 7 -4 7 C-4 5.68 -4 4.36 -4 3 C-5.32 3 -6.64 3 -8 3 C-8 2.34 -8 1.68 -8 1 C-2.25 -1.125 -2.25 -1.125 0 0 Z " fill="#4E3B30" transform="translate(160,174)"/>
<path d="M0 0 C0.66 0.33 1.32 0.66 2 1 C-0.40912355 2.36936501 -2.82574185 3.72041993 -5.25 5.0625 C-5.93191406 5.45244141 -6.61382812 5.84238281 -7.31640625 6.24414062 C-7.98027344 6.60830078 -8.64414063 6.97246094 -9.328125 7.34765625 C-9.9355957 7.68804932 -10.54306641 8.02844238 -11.16894531 8.37915039 C-13.46093824 9.15628879 -14.74457325 8.76849965 -17 8 C-14.730384 6.85170023 -12.45939222 5.70628022 -10.1875 4.5625 C-9.54490234 4.23701172 -8.90230469 3.91152344 -8.24023438 3.57617188 C-5.51734534 2.20767324 -2.89550206 0.96516735 0 0 Z " fill="#2A2525" transform="translate(242,220)"/>
<path d="M0 0 C0 0.99 0 1.98 0 3 C-2.08129104 3.98350025 -4.16511359 4.96164458 -6.25 5.9375 C-7.41015625 6.48277344 -8.5703125 7.02804688 -9.765625 7.58984375 C-12.23044777 8.66448266 -14.38065227 9.48780081 -17 10 C-16.67 9.01 -16.34 8.02 -16 7 C-13.49856737 5.82526178 -11.08588649 4.81920442 -8.5 3.875 C-3.90976402 2.47302115 -3.90976402 2.47302115 0 0 Z " fill="#39302C" transform="translate(238,217)"/>
<path d="M0 0 C-4.9748792 3.31658613 -11.03568353 4.38479461 -17 4 C-17 3.34 -17 2.68 -17 2 C-11.35600642 -0.44064587 -6.02248522 -0.19289099 0 0 Z " fill="#252122" transform="translate(181,38)"/>
<path d="M0 0 C-2.40342408 2.40342408 -3.26559788 2.33998969 -6.5703125 2.6328125 C-7.91416016 2.75849609 -7.91416016 2.75849609 -9.28515625 2.88671875 C-10.22230469 2.96535156 -11.15945312 3.04398438 -12.125 3.125 C-13.06988281 3.21136719 -14.01476562 3.29773438 -14.98828125 3.38671875 C-17.32492418 3.59914083 -19.6619967 3.80321542 -22 4 C-22 3.34 -22 2.68 -22 2 C-14.66258031 -0.3479743 -7.65606218 -0.19355213 0 0 Z " fill="#6A4839" transform="translate(173,219)"/>
<path d="M0 0 C-10.37357631 6.70387244 -10.37357631 6.70387244 -16 7 C-12.9186927 3.07833617 -5.00314995 -2.50157497 0 0 Z " fill="#272324" transform="translate(112,167)"/>
<path d="M0 0 C0.66 0.33 1.32 0.66 2 1 C1.22914062 1.61488281 0.45828125 2.22976562 -0.3359375 2.86328125 C-1.33882812 3.67152344 -2.34171875 4.47976562 -3.375 5.3125 C-4.37273437 6.11300781 -5.37046875 6.91351563 -6.3984375 7.73828125 C-9.13480753 9.91621686 -9.13480753 9.91621686 -11 13 C-11.66 13 -12.32 13 -13 13 C-11.57142347 9.63951428 -9.83945402 7.72274139 -7.0625 5.375 C-6.37285156 4.78460938 -5.68320313 4.19421875 -4.97265625 3.5859375 C-3 2 -3 2 0 0 Z " fill="#2E2928" transform="translate(100,73)"/>
<path d="M0 0 C0.66 0.66 1.32 1.32 2 2 C0.04653795 3.67268922 -1.91229814 5.33821581 -3.875 7 C-4.70837891 7.71542969 -4.70837891 7.71542969 -5.55859375 8.4453125 C-9.7734375 12 -9.7734375 12 -12 12 C-12 11.34 -12 10.68 -12 10 C-10.23947136 8.41929472 -8.41580202 6.90833714 -6.5625 5.4375 C-5.55316406 4.63183594 -4.54382813 3.82617188 -3.50390625 2.99609375 C-2.67761719 2.33738281 -1.85132813 1.67867187 -1 1 C-0.67 0.67 -0.34 0.34 0 0 Z " fill="#B6B273" transform="translate(328,44)"/>
<path d="M0 0 C-2.36543716 2.36543716 -4.57067205 3.27541323 -7.625 4.625 C-8.62789062 5.07101563 -9.63078125 5.51703125 -10.6640625 5.9765625 C-11.43492187 6.31429687 -12.20578125 6.65203125 -13 7 C-13 6.34 -13 5.68 -13 5 C-13.66 4.67 -14.32 4.34 -15 4 C-13.06767179 3.13419713 -11.12892806 2.28270059 -9.1875 1.4375 C-8.10855469 0.96183594 -7.02960938 0.48617187 -5.91796875 -0.00390625 C-3 -1 -3 -1 0 0 Z " fill="#945F3E" transform="translate(237,222)"/>
<path d="M0 0 C0.33 0.66 0.66 1.32 1 2 C1.62648437 1.90460937 2.25296875 1.80921875 2.8984375 1.7109375 C3.71570313 1.60007813 4.53296875 1.48921875 5.375 1.375 C6.59316406 1.20097656 6.59316406 1.20097656 7.8359375 1.0234375 C8.55007812 1.01570313 9.26421875 1.00796875 10 1 C10.66 1.66 11.32 2.32 12 3 C7.545 3.495 7.545 3.495 3 4 C3 4.66 3 5.32 3 6 C4.32 6.33 5.64 6.66 7 7 C5.35 7 3.7 7 2 7 C2 5.68 2 4.36 2 3 C1.34 3 0.68 3 0 3 C0 2.01 0 1.02 0 0 Z " fill="#9A7654" transform="translate(163,40)"/>
<path d="M0 0 C0.33 0 0.66 0 1 0 C1.38971999 2.10149011 1.76131477 4.2063482 2.125 6.3125 C2.33382812 7.48425781 2.54265625 8.65601563 2.7578125 9.86328125 C3 13 3 13 1 16 C-1.0662997 10.28728907 -1.0006709 5.96345767 0 0 Z " fill="#723832" transform="translate(33,193)"/>
<path d="M0 0 C-4.58921384 3.15654048 -8.29370646 5.57202798 -14 6 C-11.86197902 3.67490219 -9.81401863 2.17832764 -7 0.75 C-6.319375 0.39421875 -5.63875 0.0384375 -4.9375 -0.328125 C-3 -1 -3 -1 0 0 Z " fill="#2D2626" transform="translate(112,171)"/>
<path d="M0 0 C0.66 0.33 1.32 0.66 2 1 C0.71632558 2.83893824 -0.57716761 4.67102625 -1.875 6.5 C-2.95394531 8.03140625 -2.95394531 8.03140625 -4.0546875 9.59375 C-4.69664063 10.3878125 -5.33859375 11.181875 -6 12 C-6.66 12 -7.32 12 -8 12 C-6.49087042 7.01987239 -3.44338151 3.75740058 0 0 Z " fill="#312B2A" transform="translate(76,126)"/>
<path d="M0 0 C1.98 0.66 3.96 1.32 6 2 C6.33 3.98 6.66 5.96 7 8 C5.8274869 7.04882866 4.66212985 6.08882991 3.5 5.125 C2.8503125 4.59132812 2.200625 4.05765625 1.53125 3.5078125 C1.0259375 3.01023438 0.520625 2.51265625 0 2 C0 1.34 0 0.68 0 0 Z " fill="#753731" transform="translate(40,204)"/>
<path d="M0 0 C0.33 0.66 0.66 1.32 1 2 C0.00390625 4.1640625 0.00390625 4.1640625 -1.4375 6.625 C-1.91058594 7.44226563 -2.38367188 8.25953125 -2.87109375 9.1015625 C-3.24363281 9.72804687 -3.61617188 10.35453125 -4 11 C-4.99 11 -5.98 11 -7 11 C-5.22054913 6.95579349 -2.60470327 3.53921513 0 0 Z " fill="#2D2929" transform="translate(321,146)"/>
<path d="M0 0 C0.66 0.33 1.32 0.66 2 1 C1.59007813 1.47050781 1.18015625 1.94101563 0.7578125 2.42578125 C-0.05042969 3.35970703 -0.05042969 3.35970703 -0.875 4.3125 C-1.40867187 4.92738281 -1.94234375 5.54226562 -2.4921875 6.17578125 C-4.1640447 8.13498212 -4.1640447 8.13498212 -6 11 C-6.99 10.67 -7.98 10.34 -9 10 C-6.03 6.7 -3.06 3.4 0 0 Z " fill="#2A2525" transform="translate(80,129)"/>
<path d="M0 0 C0 3.71884228 -0.8740066 4.36147729 -3.3125 7.0625 C-4.23482422 8.10083984 -4.23482422 8.10083984 -5.17578125 9.16015625 C-7 11 -7 11 -10 13 C-8.48446596 9.52224821 -6.4226544 7.0442016 -3.875 4.25 C-3.15054688 3.45078125 -2.42609375 2.6515625 -1.6796875 1.828125 C-0.84824219 0.92320313 -0.84824219 0.92320313 0 0 Z " fill="#794E3B" transform="translate(86,124)"/>
<path d="M0 0 C0.33 0.66 0.66 1.32 1 2 C0.24172908 3.17487036 -0.53207755 4.33972592 -1.3125 5.5 C-1.74175781 6.1496875 -2.17101562 6.799375 -2.61328125 7.46875 C-3.07089844 7.9740625 -3.52851563 8.479375 -4 9 C-4.99 9 -5.98 9 -7 9 C-5.44499019 5.18315774 -2.96404505 2.80804268 0 0 Z " fill="#302C2C" transform="translate(303,94)"/>
<path d="M0 0 C0.33 0.66 0.66 1.32 1 2 C1.66 2 2.32 2 3 2 C3 2.66 3 3.32 3 4 C2.0925 4.433125 1.185 4.86625 0.25 5.3125 C-2.43218449 6.70517271 -4.66139605 8.11112757 -7 10 C-5.33248852 6.05860922 -2.77289351 3.2107188 0 0 Z " fill="#7F674D" transform="translate(274,139)"/>
<path d="M0 0 C0.99 0.33 1.98 0.66 3 1 C-0.3 3.97 -3.6 6.94 -7 10 C-7.66 9.67 -8.32 9.34 -9 9 C-6.03 6.03 -3.06 3.06 0 0 Z " fill="#A78257" transform="translate(273,137)"/>
<path d="M0 0 C0.66 0.33 1.32 0.66 2 1 C-3.14285714 7.57142857 -3.14285714 7.57142857 -7 9 C-5.44499019 5.18315774 -2.96404505 2.80804268 0 0 Z " fill="#353230" transform="translate(333,52)"/>
<path d="M0 0 C2.97 0.33 5.94 0.66 9 1 C8.67 1.66 8.34 2.32 8 3 C5.69 3 3.38 3 1 3 C0.67 2.01 0.34 1.02 0 0 Z " fill="#41312D" transform="translate(124,243)"/>
<path d="M0 0 C0.598125 0.350625 1.19625 0.70125 1.8125 1.0625 C0.8225 1.5575 0.8225 1.5575 -0.1875 2.0625 C-0.1875 2.7225 -0.1875 3.3825 -0.1875 4.0625 C-2.125 3.75 -2.125 3.75 -4.1875 3.0625 C-4.5175 2.0725 -4.8475 1.0825 -5.1875 0.0625 C-2.1875 -0.9375 -2.1875 -0.9375 0 0 Z " fill="#5A342E" transform="translate(76.1875,234.9375)"/>
<path d="M0 0 C0 3 0 3 -1.75 4.82421875 C-2.4925 5.43910156 -3.235 6.05398437 -4 6.6875 C-4.7425 7.31011719 -5.485 7.93273437 -6.25 8.57421875 C-6.8275 9.04472656 -7.405 9.51523438 -8 10 C-8.66 9.34 -9.32 8.68 -10 8 C-6.7 5.36 -3.4 2.72 0 0 Z " fill="#3A3431" transform="translate(280,186)"/>
<path d="M0 0 C-1.49097658 3.7952131 -3.75700849 5.61042731 -7 8 C-7.66 7.67 -8.32 7.34 -9 7 C-7.88121617 5.82737096 -6.75476949 4.66204862 -5.625 3.5 C-4.68527344 2.52546875 -4.68527344 2.52546875 -3.7265625 1.53125 C-2 0 -2 0 0 0 Z " fill="#AEAA72" transform="translate(330,53)"/>
<path d="M0 0 C0.66 0.33 1.32 0.66 2 1 C-0.31 3.31 -2.62 5.62 -5 8 C-5.99 7.34 -6.98 6.68 -8 6 C-7.01 5.67 -6.02 5.34 -5 5 C-3.29413425 3.37347684 -1.6222454 1.70993434 0 0 Z " fill="#C4A865" transform="translate(302,93)"/>
<path d="M0 0 C0.33 0.66 0.66 1.32 1 2 C-0.98 4.97 -0.98 4.97 -3 8 C-3.99 7.67 -4.98 7.34 -6 7 C-4.02 4.69 -2.04 2.38 0 0 Z " fill="#2B2727" transform="translate(300,91)"/>
<path d="M0 0 C2 1 2 1 3 3 C1.71349294 3.69710731 0.42059335 4.38242876 -0.875 5.0625 C-1.95394531 5.63677734 -1.95394531 5.63677734 -3.0546875 6.22265625 C-3.69664062 6.47917969 -4.33859375 6.73570312 -5 7 C-5.66 6.67 -6.32 6.34 -7 6 C-6.030625 5.38125 -5.06125 4.7625 -4.0625 4.125 C-0.97164638 2.34321154 -0.97164638 2.34321154 0 0 Z " fill="#84624A" transform="translate(232,188)"/>
<path d="M0 0 C0.66 0.33 1.32 0.66 2 1 C-3.625 5 -3.625 5 -7 5 C-7 4.34 -7 3.68 -7 3 C-4.69631264 1.93347808 -2.35981813 0.93578995 0 0 Z " fill="#292525" transform="translate(108,175)"/>
<path d="M0 0 C0.66 0.33 1.32 0.66 2 1 C0.90554162 1.86657116 -0.20097781 2.71792724 -1.3125 3.5625 C-1.92738281 4.03816406 -2.54226562 4.51382813 -3.17578125 5.00390625 C-3.77777344 5.33261719 -4.37976563 5.66132813 -5 6 C-5.99 5.67 -6.98 5.34 -8 5 C-6.71475739 4.13619741 -5.42157581 3.28419631 -4.125 2.4375 C-3.04605469 1.72400391 -3.04605469 1.72400391 -1.9453125 0.99609375 C-1.30335938 0.66738281 -0.66140625 0.33867187 0 0 Z " fill="#2B2727" transform="translate(224,162)"/>
<path d="M0 0 C-0.33 0.99 -0.66 1.98 -1 3 C-4.5625 4.1875 -4.5625 4.1875 -8 5 C-7.67 4.01 -7.34 3.02 -7 2 C-4.56723614 0.81480735 -2.71982714 0 0 0 Z " fill="#272324" transform="translate(229,222)"/>
<path d="M0 0 C0.99 0.33 1.98 0.66 3 1 C1.35 2.98 -0.3 4.96 -2 7 C-1.34 7.33 -0.68 7.66 0 8 C-0.99 8 -1.98 8 -3 8 C-2.45276317 4.62537285 -1.9451 2.91765 0 0 Z " fill="#886248" transform="translate(89,79)"/>
<path d="M0 0 C-1.57344039 3.14688078 -4.27851951 4.79965407 -7 7 C-6.6875 4.625 -6.6875 4.625 -6 2 C-3 0 -3 0 0 0 Z " fill="#B8AA6E" transform="translate(316,71)"/>
<path d="" fill="#676465" transform="translate(0,0)"/>
</svg>
