<svg xmlns="http://www.w3.org/2000/svg" viewBox="0 0 600 600">
  <!-- Coffee and pastries scene -->
  <defs>
    <radialGradient id="tableBg" cx="50%" cy="50%" r="50%">
      <stop offset="0%" style="stop-color:#F5DEB3;stop-opacity:1" />
      <stop offset="100%" style="stop-color:#D2B48C;stop-opacity:1" />
    </radialGradient>
  </defs>

  <!-- Table surface -->
  <rect width="600" height="600" fill="url(#tableBg)"/>

  <!-- Coffee cup -->
  <ellipse cx="250" cy="320" rx="60" ry="15" fill="#3E2723"/>
  <rect x="190" y="250" width="120" height="70" rx="60" fill="#6D4C41"/>
  <ellipse cx="250" cy="250" rx="60" ry="15" fill="#4E342E"/>
  <rect x="235" y="320" width="30" height="40" fill="#5D4037"/>

  <!-- Coffee liquid -->
  <ellipse cx="250" cy="260" rx="50" ry="12" fill="#3E2723"/>

  <!-- Steam -->
  <path d="M 230 230 Q 225 210 230 190" stroke="#FFFFFF" stroke-width="3" fill="none" opacity="0.5"/>
  <path d="M 250 230 Q 245 210 250 190" stroke="#FFFFFF" stroke-width="3" fill="none" opacity="0.5"/>
  <path d="M 270 230 Q 265 210 270 190" stroke="#FFFFFF" stroke-width="3" fill="none" opacity="0.5"/>

  <!-- Croissant -->
  <ellipse cx="400" cy="300" rx="80" ry="40" fill="#F4A460" transform="rotate(-20 400 300)"/>
  <ellipse cx="390" cy="290" rx="70" ry="35" fill="#DEB887" transform="rotate(-20 390 290)"/>
  <path d="M 340 300 Q 380 280 420 300" stroke="#CD853F" stroke-width="2" fill="none"/>
  <path d="M 345 310 Q 380 290 415 310" stroke="#CD853F" stroke-width="2" fill="none"/>

  <!-- Plate -->
  <ellipse cx="300" cy="400" rx="120" ry="30" fill="#FFFFFF" opacity="0.9"/>
  <ellipse cx="300" cy="395" rx="115" ry="28" fill="#F0F0F0"/>
</svg>

