<svg xmlns="http://www.w3.org/2000/svg" viewBox="0 0 600 600">
  <!-- Evening cocktail scene -->
  <defs>
    <linearGradient id="eveningBg" x1="0%" y1="0%" x2="0%" y2="100%">
      <stop offset="0%" style="stop-color:#E1BEE7;stop-opacity:1" />
      <stop offset="100%" style="stop-color:#CE93D8;stop-opacity:1" />
    </linearGradient>
  </defs>

  <rect width="600" height="600" fill="url(#eveningBg)"/>

  <!-- Table -->
  <rect x="100" y="400" width="400" height="150" fill="#5D4037"/>

  <!-- Cocktail glass -->
  <path d="M 250 250 L 200 400 L 300 400 Z" fill="#E1F5FE" opacity="0.6"/>
  <rect x="240" y="400" width="20" height="100" fill="#E1F5FE" opacity="0.6"/>
  <ellipse cx="250" cy="500" rx="40" ry="10" fill="#E1F5FE" opacity="0.6"/>

  <!-- Cocktail liquid -->
  <path d="M 240 300 L 215 380 L 285 380 Z" fill="#EC407A" opacity="0.7"/>

  <!-- Ice cubes -->
  <rect x="235" y="310" width="20" height="20" rx="3" fill="#FFFFFF" opacity="0.6"/>
  <rect x="255" y="330" width="18" height="18" rx="3" fill="#FFFFFF" opacity="0.6"/>

  <!-- Garnish - herb sprig -->
  <line x1="250" y1="280" x2="250" y2="220" stroke="#4CAF50" stroke-width="3"/>
  <ellipse cx="245" cy="240" rx="5" ry="8" fill="#66BB6A"/>
  <ellipse cx="255" cy="235" rx="5" ry="8" fill="#66BB6A"/>
  <ellipse cx="248" cy="250" rx="5" ry="8" fill="#66BB6A"/>

  <!-- Straw -->
  <rect x="270" y="250" width="6" height="120" fill="#FFD54F" transform="rotate(15 273 310)"/>

  <!-- Candle light glow -->
  <circle cx="400" cy="350" r="30" fill="#FFF59D" opacity="0.5"/>
  <ellipse cx="400" cy="340" rx="8" ry="15" fill="#FFEB3B"/>
</svg>

