<svg xmlns="http://www.w3.org/2000/svg" viewBox="0 0 600 600">
  <!-- Garden plants and details -->
  <defs>
    <linearGradient id="gardenBg" x1="0%" y1="0%" x2="0%" y2="100%">
      <stop offset="0%" style="stop-color:#E8F5E9;stop-opacity:1" />
      <stop offset="100%" style="stop-color:#C8E6C9;stop-opacity:1" />
    </linearGradient>
  </defs>

  <rect width="600" height="600" fill="url(#gardenBg)"/>

  <!-- Prickly pear cactus -->
  <ellipse cx="200" cy="350" rx="50" ry="70" fill="#4B7251"/>
  <ellipse cx="190" cy="300" rx="45" ry="65" fill="#5D8A65"/>
  <ellipse cx="240" cy="330" rx="48" ry="68" fill="#4B7251"/>

  <!-- Prickly pear fruits -->
  <ellipse cx="190" cy="270" rx="20" ry="25" fill="#C8575A"/>
  <ellipse cx="220" cy="290" rx="18" ry="23" fill="#C8575A"/>
  <ellipse cx="250" cy="305" rx="19" ry="24" fill="#D9696C"/>

  <!-- Small spines -->
  <line x1="180" y1="310" x2="175" y2="305" stroke="#3E5F47" stroke-width="1"/>
  <line x1="195" y1="320" x2="190" y2="315" stroke="#3E5F47" stroke-width="1"/>
  <line x1="210" y1="330" x2="205" y2="325" stroke="#3E5F47" stroke-width="1"/>

  <!-- Other plants -->
  <ellipse cx="400" cy="380" rx="35" ry="60" fill="#2E7D32" opacity="0.8"/>
  <ellipse cx="430" cy="390" rx="30" ry="55" fill="#388E3C" opacity="0.8"/>
  <ellipse cx="460" cy="400" rx="32" ry="58" fill="#2E7D32" opacity="0.8"/>

  <!-- Leaves -->
  <ellipse cx="380" cy="340" rx="15" ry="40" fill="#66BB6A" transform="rotate(-30 380 340)"/>
  <ellipse cx="410" cy="350" rx="18" ry="45" fill="#66BB6A" transform="rotate(20 410 350)"/>
  <ellipse cx="440" cy="360" rx="16" ry="42" fill="#66BB6A" transform="rotate(-10 440 360)"/>

  <!-- Ground/soil -->
  <ellipse cx="200" cy="430" rx="100" ry="20" fill="#8D6E63" opacity="0.3"/>
  <ellipse cx="430" cy="460" rx="90" ry="18" fill="#8D6E63" opacity="0.3"/>
</svg>

