<svg xmlns="http://www.w3.org/2000/svg" viewBox="0 0 600 600">
  <!-- Night ambiance -->
  <defs>
    <radialGradient id="nightSky" cx="50%" cy="30%" r="70%">
      <stop offset="0%" style="stop-color:#1A237E;stop-opacity:1" />
      <stop offset="100%" style="stop-color:#0D47A1;stop-opacity:1" />
    </radialGradient>
  </defs>

  <!-- Night sky -->
  <rect width="600" height="600" fill="url(#nightSky)"/>

  <!-- Moon -->
  <circle cx="450" cy="100" r="50" fill="#FFF9C4"/>
  <circle cx="430" cy="95" r="45" fill="#1A237E" opacity="0.3"/>

  <!-- Stars -->
  <circle cx="100" cy="80" r="2" fill="#FFFFFF"/>
  <circle cx="150" cy="120" r="3" fill="#FFFFFF"/>
  <circle cx="200" cy="60" r="2" fill="#FFFFFF"/>
  <circle cx="250" cy="100" r="2.5" fill="#FFFFFF"/>
  <circle cx="350" cy="150" r="2" fill="#FFFFFF"/>
  <circle cx="500" cy="180" r="3" fill="#FFFFFF"/>
  <circle cx="550" cy="120" r="2" fill="#FFFFFF"/>
  <circle cx="80" cy="150" r="2.5" fill="#FFFFFF"/>
  <circle cx="180" cy="140" r="2" fill="#FFFFFF"/>

  <!-- Courtyard wall -->
  <rect x="0" y="350" width="600" height="250" fill="#E8EAF6"/>

  <!-- String lights -->
  <line x1="0" y1="320" x2="600" y2="320" stroke="#424242" stroke-width="2"/>
  <circle cx="100" cy="320" r="8" fill="#FFD54F" opacity="0.9"/>
  <circle cx="200" cy="320" r="8" fill="#FFF59D" opacity="0.9"/>
  <circle cx="300" cy="320" r="8" fill="#FFD54F" opacity="0.9"/>
  <circle cx="400" cy="320" r="8" fill="#FFF59D" opacity="0.9"/>
  <circle cx="500" cy="320" r="8" fill="#FFD54F" opacity="0.9"/>

  <!-- Glow from lights -->
  <circle cx="100" cy="320" r="20" fill="#FFD54F" opacity="0.2"/>
  <circle cx="200" cy="320" r="20" fill="#FFF59D" opacity="0.2"/>
  <circle cx="300" cy="320" r="20" fill="#FFD54F" opacity="0.2"/>
  <circle cx="400" cy="320" r="20" fill="#FFF59D" opacity="0.2"/>
  <circle cx="500" cy="320" r="20" fill="#FFD54F" opacity="0.2"/>

  <!-- Candle on table -->
  <rect x="290" y="450" width="20" height="40" rx="2" fill="#FFF59D"/>
  <ellipse cx="300" cy="440" rx="8" ry="12" fill="#FFEB3B"/>
  <circle cx="300" cy="420" r="30" fill="#FFF59D" opacity="0.3"/>
</svg>

