<svg xmlns="http://www.w3.org/2000/svg" viewBox="0 0 600 600">
  <!-- Table setting scene -->
  <rect width="600" height="600" fill="#F5F5DC"/>

  <!-- Wooden table -->
  <rect x="0" y="200" width="600" height="400" fill="#8D6E63"/>
  <rect x="0" y="200" width="600" height="20" fill="#6D4C41"/>

  <!-- Wood grain effect -->
  <line x1="0" y1="300" x2="600" y2="302" stroke="#6D4C41" stroke-width="1" opacity="0.3"/>
  <line x1="0" y1="400" x2="600" y2="402" stroke="#6D4C41" stroke-width="1" opacity="0.3"/>
  <line x1="0" y1="500" x2="600" y2="502" stroke="#6D4C41" stroke-width="1" opacity="0.3"/>

  <!-- Plate -->
  <circle cx="300" cy="300" r="100" fill="#FFFFFF"/>
  <circle cx="300" cy="300" r="95" fill="#F5F5F5"/>
  <circle cx="300" cy="300" r="85" fill="#FFFFFF"/>

  <!-- Cutlery - Fork (left) -->
  <rect x="150" y="250" width="8" height="120" rx="4" fill="#C0C0C0"/>
  <rect x="145" y="240" width="4" height="25" rx="2" fill="#C0C0C0"/>
  <rect x="153" y="240" width="4" height="25" rx="2" fill="#C0C0C0"/>
  <rect x="161" y="240" width="4" height="25" rx="2" fill="#C0C0C0"/>

  <!-- Knife (right) -->
  <rect x="442" y="250" width="8" height="120" rx="4" fill="#C0C0C0"/>
  <path d="M 440 240 L 440 260 L 455 250 Z" fill="#C0C0C0"/>

  <!-- Wine glass -->
  <ellipse cx="400" cy="450" rx="25" ry="8" fill="#E1F5FE" opacity="0.5"/>
  <rect x="397" y="420" width="6" height="30" fill="#E1F5FE" opacity="0.5"/>
  <path d="M 370 350 L 365 420 L 435 420 L 430 350 Z" fill="#E1F5FE" opacity="0.6"/>
  <ellipse cx="400" cy="350" rx="30" ry="8" fill="#E1F5FE" opacity="0.6"/>

  <!-- Wine in glass -->
  <path d="M 375 370 L 370 410 L 430 410 L 425 370 Z" fill="#C2185B" opacity="0.6"/>

  <!-- Napkin -->
  <rect x="200" y="320" width="80" height="80" rx="5" fill="#E8EAF6"/>
  <path d="M 210 330 L 270 390" stroke="#C5CAE9" stroke-width="2"/>
  <path d="M 230 330 L 270 370" stroke="#C5CAE9" stroke-width="2"/>

  <!-- Candle -->
  <rect x="297" y="230" width="6" height="30" fill="#FFF59D"/>
  <ellipse cx="300" cy="225" rx="4" ry="6" fill="#FFEB3B"/>
  <ellipse cx="300" cy="260" rx="15" ry="5" fill="#FFD54F" opacity="0.3"/>
</svg>

